<?xml version="1.0" encoding="UTF-8" standalone="no"?>
<!-- Created with Inkscape (http://www.inkscape.org/) -->

<svg
   version="1.1"
   id="svg1"
   width="467.66623"
   height="580.14465"
   viewBox="0 0 467.66623 580.14465"
   xmlns="http://www.w3.org/2000/svg"
   xmlns:svg="http://www.w3.org/2000/svg">
  <defs
     id="defs1" />
  <g
     id="g1"
     transform="translate(-260.68753,-171.27077)">
    <path
       style="fill:#345b78;stroke:none"
       d="m 505.57125,172.16416 c -31.39548,4.12231 -60.87616,9.74798 -89,25.4375 -87.6886,48.919 -129.61517,154.27673 -101.57562,250.13812 7.88708,26.96429 21.53546,53.15857 39.1875,75 6.01858,7.44702 12.53698,14.30127 19.38812,20.98535 2.26315,2.20801 7.86896,5.54444 7.95911,9.05402 0.0952,3.70697 -5.1987,8.2951 -7.38349,10.96063 -7.38434,9.00928 -14.83862,17.96118 -22.18673,27 -28.08408,34.5459 -61.9246,68.08502 -85.32407,106 -13.64366,22.1073 -3.46803,56.16742 26.93518,54.625 25.22742,-1.27985 38.44385,-25.25342 51.5787,-43.625 20.87095,-29.19196 41.77723,-58.46631 63.53702,-87 7.97394,-10.45618 15.85272,-26.25256 26.03937,-34.46912 3.95294,-3.18847 17.25079,4.37958 21.84491,5.74842 20.24316,6.03174 41.83862,9.74853 63,9.2655 81.44136,-1.85913 155.37646,-48.60193 189.69136,-123.5448 54.1018,-118.15704 -11.248,-267.25476 -139.6914,-299.37347 -20.08907,-5.0235 -43.2849,-8.92206 -63.99996,-6.20215 m 8.91049,51.95599 c 88.34047,-6.33624 164.67737,78.51441 163.03547,163.61963 -1.6335,84.67419 -65.9513,155.08997 -150.94596,160.91052 -17.69513,1.21179 -36.01843,-1.64331 -53,-6.48926 -16.93658,-4.83306 -32.52203,-12.80841 -47,-22.76849 -91.82016,-63.16748 -87.69519,-203.94928 1,-267.22528 25.85202,-18.44305 55.77231,-25.81372 86.91049,-28.04712 m -74.80554,80.36194 c -9.4198,3.99597 -9.65305,35.88812 -0.061,39.6543 9.24615,3.63031 25.03796,0.60339 34.95605,0.60339 h 81.99996 c 10.2289,0 29.8773,3.79016 38.9568,-1.02777 9.3256,-4.94855 10.1233,-36.46375 -0.9606,-39.53858 -10.572,-2.9328 -25.0317,-0.43365 -35.9962,-0.43365 h -76.99996 c -11.6095,0 -31.19614,-3.79633 -41.89505,0.74231 m -29.08951,61.8302 c -10.49344,3.10626 -10.86996,35.74927 -0.99615,39.68518 9.07858,3.6189 24.2493,0.74231 33.98071,0.74231 h 77 c 9.38934,0 27.64789,3.5144 35.94136,-1.02777 8.2326,-4.50885 6.8766,-37.28949 -2.9452,-39.57794 -9.77826,-2.27832 -21.96753,-0.39429 -31.99616,-0.39429 h -65 c -13.84232,0 -32.70657,-3.35803 -45.98456,0.57251 m 28.00385,61.1698 c -10.07865,4.01758 -8.67746,35.4173 1.02469,39.3642 9.62408,3.91516 25.62967,0.89349 35.95602,0.89349 h 82.99996 c 10.0199,0 30.3627,3.85657 38.8913,-1.85803 8.5058,-5.69934 6.7094,-35.79297 -3.8921,-38.70832 -10.5968,-2.91406 -25.016,-0.43365 -35.9992,-0.43365 h -75.99996 c -12.13882,0 -31.69232,-3.75751 -42.98071,0.74231 z"
       id="path1" />
  </g>
</svg>
